<?xml version="1.0" encoding="utf-8"?>
<svg version="1.1" baseProfile="tiny" id="Layer_1" xmlns="http://www.w3.org/2000/svg" xmlns:xlink="http://www.w3.org/1999/xlink"
	 x="0px" y="0px" viewBox="0 0 128 128" xml:space="preserve">
<g>
	<g>
		<path fill="#0073AA" d="M113.1,65.7c-0.2,23.4-16.9,43.7-39.9,48.2c-23.1,4.6-46.6-8.9-55.1-30.6c-8.5-22,0.4-47.3,20.3-59.5
			c20.1-12.4,46.6-8,62.3,9.4C108.7,42,113,53.8,113.1,65.7c0,1.9,3,1.9,3,0c-0.2-22.3-14.5-42.2-35.6-49.4C59.2,9,35.4,17,22,34.8
			c-13.5,18-13.2,43.6,0,61.7c13.2,18.1,37.2,25.5,58.5,18.6c21.1-6.9,35.4-27.3,35.6-49.4C116.1,63.7,113.1,63.7,113.1,65.7z"/>
	</g>
</g>
<g>
	<g>
		<path fill="#0073AA" d="M71.3,65.7c-0.2,4.1-3.2,7.1-7.3,7.3c-4.1,0.2-7.1-3.4-7.3-7.3c-0.2-4.1,3.4-7.1,7.3-7.3
			C68.1,58.2,71.1,61.8,71.3,65.7c0.1,1.9,3.1,1.9,3,0c-0.2-5.8-4.5-10.1-10.3-10.3c-5.8-0.2-10.1,4.9-10.3,10.3
			C53.5,71.4,58.6,75.8,64,76c5.8,0.2,10.1-4.9,10.3-10.3C74.4,63.7,71.4,63.8,71.3,65.7z"/>
	</g>
</g>
<g>
	<g>
		<path fill="#0073AA" d="M63.2,27.6c22.3,0.2,40.5,18.4,40.7,40.7c0,1.9,3,1.9,3,0c-0.2-24-19.7-43.5-43.7-43.7
			C61.3,24.6,61.3,27.6,63.2,27.6L63.2,27.6z"/>
	</g>
</g>
<g>
	<g>
		<path fill="#0073AA" stroke="#0073AA" stroke-miterlimit="10" d="M64,39.9C79.7,40,92.3,52.7,92.5,68.3c0,1.9,3,1.9,3,0
			C95.3,51,81.3,37.1,64,36.9C62.1,36.8,62.1,39.8,64,39.9L64,39.9z"/>
	</g>
</g>
</svg>
